<svg xmlns="http://www.w3.org/2000/svg" viewBox="0 0 64 48"><path d="M64.1 41c-.2.7-.4 1.4-.7 2.1-.1.2-.2.4-.4.7-6.8-7.6-13.5-15.1-20.2-22.6 6.7-5.8 13.3-11.6 20-17.5.8 1 1 2.1 1.3 3.2V41zM.1 7c.3-.9.6-1.7.9-2.6.1-.2.2-.4.4-.6 6.7 5.8 13.3 11.6 20 17.5C14.7 28.8 8 36.3 1.1 44c-.3-1.1-.6-2-.9-2.9C.1 29.7.1 18.3.1 7zm60.2 39.8c-1.3.8-2.7 1.2-4.2 1.2H8.2c-1.5 0-2.9-.4-4.3-1.2 6.8-7.6 13.6-15.2 20.5-22.9 1.2 1 2.3 2 3.5 3 1 .8 1.9 1.7 2.9 2.5.9.8 1.9.8 2.9 0 2.1-1.8 4.2-3.6 6.3-5.5 6.7 7.6 13.5 15.2 20.3 22.9z"/><path d="M59.9 1c-9.3 8.1-18.5 16.2-27.8 24.3C22.9 17.2 13.6 9.2 4.3 1 5.5.3 6.8 0 8.2 0H56c1.4 0 2.7.3 3.9 1z"/></svg>