<?xml version="1.0" encoding="utf-8"?>
<!-- Generator: Adobe Illustrator 21.0.0, SVG Export Plug-In . SVG Version: 6.00 Build 0)  -->
<svg version="1.1" id="Слой_1" xmlns="http://www.w3.org/2000/svg" xmlns:xlink="http://www.w3.org/1999/xlink" x="0px" y="0px"
	 viewBox="0 0 64 48" style="enable-background:new 0 0 64 48;" xml:space="preserve">
<path d="M64.1,41c-0.2,0.7-0.4,1.4-0.7,2.1c-0.1,0.2-0.2,0.4-0.4,0.7c-6.8-7.6-13.5-15.1-20.2-22.6c6.7-5.8,13.3-11.6,20-17.5
	c0.8,1,1,2.1,1.3,3.2C64.1,18.3,64.1,29.7,64.1,41z"/>
<path d="M0.1,7C0.4,6.1,0.7,5.3,1,4.4C1.1,4.2,1.2,4,1.4,3.8c6.7,5.8,13.3,11.6,20,17.5c-6.7,7.5-13.4,15-20.3,22.7
	c-0.3-1.1-0.6-2-0.9-2.9C0.1,29.7,0.1,18.3,0.1,7z"/>
<path d="M60.3,46.8C59,47.6,57.6,48,56.1,48c-9.6,0-19.1,0-28.7,0c-6.4,0-12.8,0-19.2,0c-1.5,0-2.9-0.4-4.3-1.2
	c6.8-7.6,13.6-15.2,20.5-22.9c1.2,1,2.3,2,3.5,3c1,0.8,1.9,1.7,2.9,2.5c0.9,0.8,1.9,0.8,2.9,0c2.1-1.8,4.2-3.6,6.3-5.5
	C46.7,31.5,53.5,39.1,60.3,46.8z"/>
<path d="M59.9,1c-9.3,8.1-18.5,16.2-27.8,24.3C22.9,17.2,13.6,9.2,4.3,1c1.2-0.7,2.5-1,3.9-1c6.3,0,12.7,0,19,0C36.8,0,46.4,0,56,0
	C57.4,0,58.7,0.3,59.9,1z"/>
</svg>
