<svg id="图层_1" data-name="图层 1" xmlns="http://www.w3.org/2000/svg" viewBox="0 0 56.86 80.26"><defs><style>.cls-1{fill:#484847}.cls-4{fill:#1d1d1b;fill-rule:evenodd}.cls-5{fill:#fff}.cls-6{fill:#f0f0f0}</style></defs><path class="cls-1" d="M28.39 80.26L5.18 73.81 0 15.77h56.86L51.68 73.8"/><path class="cls-1" d="M47.25 70.11l4.42-49.59H28.43v54.8M29.92 0v2.93l3.11 4.39h-2.87v3.5h8.6V7.49l-2.87-3.67h2.87V0"/><path class="cls-1" d="M29.72 27.64v7.11l15.91-.34.6-6.77m-3.2 14.41H29.72v7.11l9.08-.59-.82 9.53-8.26 2.08v7.4L43 63.9l.1-1.2 1.68-18.75.17-1.9"/><path class="cls-1" d="M35.6 45.7h-5.88V31.2h6.53m-9.34 28.93l-9.21-2.61-.29-3.99-4.59-.81.99 11.18 13.1 3.63"/><path class="cls-1" d="M26.91 27.64h-6.05l1.26 36.47h4.79M23.19 0v7.25h-1.47V5.9H18.1v4.92h8.71V0"/><path fill="#ef7c23" d="M28.39 80.26L5.18 73.81 0 15.77h56.86L51.68 73.8"/><path fill="#f59c26" d="M47.25 70.11l4.42-49.59H28.43v54.8"/><path class="cls-4" d="M29.92 0v2.93l3.11 4.39h-2.87v3.5h8.6V7.49l-2.87-3.67h2.87V0"/><path class="cls-5" d="M29.72 27.64v7.11l15.91-.34.6-6.77m-3.2 14.41H29.72v7.11l9.08-.59-.82 9.53-8.26 2.08v7.4L43 63.9l.1-1.2 1.68-18.75.17-1.9"/><path class="cls-5" d="M35.6 45.7h-5.88V31.2h6.53"/><path class="cls-6" d="M26.91 60.13l-9.21-2.61-.29-3.99-4.59-.81.99 11.18 13.1 3.63"/><path class="cls-6" d="M26.91 27.64h-6.05l1.26 36.47h4.79"/><path class="cls-4" d="M23.19 0v7.25h-1.47V5.9H18.1v4.92h8.71V0"/></svg>